<svg width="20" height="20" viewBox="0 0 20 20" fill="none" xmlns="http://www.w3.org/2000/svg">
<mask id="mask0_1739_24869" style="mask-type:luminance" maskUnits="userSpaceOnUse" x="0" y="0" width="20" height="20">
<path d="M19.4999 19.5V0.500059H0.5V19.5H19.4999Z" fill="white" stroke="white"/>
</mask>
<g mask="url(#mask0_1739_24869)">
<path d="M17.5037 10.9552C17.5037 15.6269 13.7165 19.4141 9.04482 19.4141C4.37311 19.4141 0.585938 15.6269 0.585938 10.9552C0.585938 6.28348 4.37311 2.49634 9.04482 2.49634" stroke="black" stroke-miterlimit="10"/>
<path d="M10.336 10.9553C10.336 11.6694 9.75791 12.2483 9.04483 12.2483C8.33171 12.2483 7.75366 11.6694 7.75366 10.9553C7.75366 10.2412 8.33171 9.66232 9.04483 9.66232C9.75791 9.66232 10.336 10.2412 10.336 10.9553Z" stroke="black" stroke-miterlimit="10" stroke-linecap="round" stroke-linejoin="round"/>
<path d="M14.6223 10.9551C14.6223 7.82548 12.2025 5.35873 9.03296 5.35873L9.04491 0.585891C14.5859 0.585891 19.4141 4.94236 19.4141 10.9551H14.6223Z" stroke="black" stroke-miterlimit="10" stroke-linecap="round" stroke-linejoin="round"/>
<path d="M12.5154 10.9552C12.5154 12.8813 10.9562 14.4426 9.03282 14.4426C7.10939 14.4426 5.55017 12.8813 5.55017 10.9552C5.55017 9.02913 7.10939 7.46777 9.03282 7.46777C10.9562 7.46777 12.5154 9.02913 12.5154 10.9552Z" stroke="black" stroke-miterlimit="10" stroke-linecap="round" stroke-linejoin="round"/>
<path d="M9.0448 16.6132V17.3433" stroke="black" stroke-miterlimit="10" stroke-linecap="round" stroke-linejoin="round"/>
<path d="M2.6283 10.9551H3.35837" stroke="black" stroke-miterlimit="10" stroke-linecap="round" stroke-linejoin="round"/>
<path d="M4.50122 15.3274L5.01747 14.8111" stroke="black" stroke-miterlimit="10" stroke-linecap="round" stroke-linejoin="round"/>
<path d="M13.1156 14.8111L13.6318 15.3274" stroke="black" stroke-miterlimit="10" stroke-linecap="round" stroke-linejoin="round"/>
<path d="M5.16481 6.86035L4.64856 6.3441" stroke="black" stroke-miterlimit="10" stroke-linecap="round" stroke-linejoin="round"/>
</g>
</svg>
