<svg width="26" height="26" viewBox="0 0 26 26" fill="none" xmlns="http://www.w3.org/2000/svg">
<path d="M7.85714 10.4286L4.42857 13.8572L1 10.4286" stroke="#333E48" stroke-width="1.2" stroke-linecap="round" stroke-linejoin="round"/>
<path d="M18.1429 15.625L21.5714 12.1964L25 15.625" stroke="#333E48" stroke-width="1.2" stroke-linecap="round" stroke-linejoin="round"/>
<path d="M7 20.7142C7 19.2941 5.84874 18.1428 4.42858 18.1428C3.00841 18.1428 1.85715 19.2941 1.85715 20.7142C1.85715 22.1344 3.00841 23.2856 4.42858 23.2856C5.84874 23.2856 7 22.1344 7 20.7142Z" stroke="#333E48" stroke-width="1.2" stroke-linecap="round" stroke-linejoin="round"/>
<path d="M24.1429 5.28575C24.1429 3.86559 22.9916 2.71432 21.5714 2.71432C20.1513 2.71432 19 3.86559 19 5.28575C19 6.70591 20.1513 7.85718 21.5714 7.85718C22.9916 7.85718 24.1429 6.70591 24.1429 5.28575Z" stroke="#333E48" stroke-width="1.2" stroke-linecap="round" stroke-linejoin="round"/>
<path d="M4.42856 13L4.42856 8.5C4.42856 7.64752 4.76721 6.82995 5.37 6.22716C5.9728 5.62436 6.79036 5.28571 7.64284 5.28571L19 5.28571" stroke="#333E48" stroke-width="1.2" stroke-linecap="round" stroke-linejoin="round"/>
<path d="M21.5714 13.0535L21.5714 17.5535C21.5714 18.406 21.2328 19.2236 20.63 19.8264C20.0272 20.4292 19.2096 20.7678 18.3571 20.7678L7 20.7678" stroke="#333E48" stroke-width="1.2" stroke-linecap="round" stroke-linejoin="round"/>
</svg>
